Coordinates
version=1
nRows=4
nColumns=107
inDegrees=yes

Units are S.I. units (second, meters, Newtons, ...)
If the header above contains a line with 'inDegrees', this indicates whether rotational values are in degrees (yes) or radians (no).

endheader
time	sternoclavicular_r2	sternoclavicular_r3	unrotscap_r3	unrotscap_r2	acromioclavicular_r2	acromioclavicular_r3	acromioclavicular_r1	unrothum_r1	unrothum_r3	unrothum_r2	elv_angle	shoulder_elv	shoulder1_r2	shoulder_rot	elbow_flexion	pro_sup	deviation	flexion	proximal_distal_r1	proximal_distal_r3	cmc_flexion	cmc_abduction	mp_flexion	ip_flexion	mcp2_flexion	mcp2_abduction	pm2_flexion	md2_flexion	mcp3_flexion	mcp3_abduction	pm3_flexion	md3_flexion	mcp4_flexion	mcp4_abduction	pm4_flexion	md4_flexion	mcp5_flexion	mcp5_abduction	pm5_flexion	md5_flexion	bicpt_tx	bicpt_ty	bicpt_tz	bicpt2_tx	bicpt2_ty	bicpt2_tz	ptpt_tx	ptpt_ty	ptpt_tz	FCUpt_tx	FCUpt_ty	FCUpt_tz	EDCpt_tx	EDCpt_ty	EDCpt_tz	APLpt_tx	APLpt_ty	APLpt_tz	FPLpt_tx	FPLpt_ty	FPLpt_tz	FPLpt2_tx	FPLpt2_ty	FPLpt2_tz	PEC1pt2_tx	PEC1pt2_ty	PEC1pt2_tz	PEC1pt3_tx	PEC1pt3_ty	PEC1pt3_tz	PEC2pt2_tx	PEC2pt2_ty	PEC2pt2_tz	PEC2pt3_tx	PEC2pt3_ty	PEC2pt3_tz	PEC3pt2_tx	PEC3pt2_ty	PEC3pt2_tz	PEC3pt3_tx	PEC3pt3_ty	PEC3pt3_tz	DELT2pt2a_tx	DELT2pt2a_ty	DELT2pt2a_tz	DELT2pt2_tx	DELT2pt2_ty	DELT2pt2_tz	LAT1pt2_tx	LAT1pt2_ty	LAT1pt2_tz	LAT1pt3_tx	LAT1pt3_ty	LAT1pt3_tz	LAT2pt2_tx	LAT2pt2_ty	LAT2pt2_tz	LAT2pt3_tx	LAT2pt3_ty	LAT2pt3_tz	LAT3pt2_tx	LAT3pt2_ty	LAT3pt2_tz	LAT3pt3_tx	LAT3pt3_ty	LAT3pt3_tz
      0.56666667	     -0.32191067	      0.13634617	     -0.13634617	      0.32191067	     -0.06518036	      0.52676477	      0.23677714	     -0.23677714	     -0.52676477	      0.06518036	     98.93528611	     76.21521350	     -1.72674649	    -21.83079511	     28.39049240	     19.40194282	     -0.02084902	     -1.00506805	     -0.02865085	     -0.50253403	     -1.37015046	     -2.28530921	    -33.66316052	    -36.60286957	     14.41307755	      6.37633425	     19.56716431	    -19.36611148	     73.87239379	      4.56620505	     83.71229677	     31.39966141	     61.57232391	     -6.37743588	     75.55487528	     26.46897583	      8.53902536	     -8.13033370	    -15.96755142	      4.97025374	      0.00083907	     -0.03085398	     -0.00482413	      0.01605060	     -0.01791242	     -0.00937146	      0.00611642	     -0.06582698	     -0.00161293	      0.00577193	     -0.18386332	     -0.00008044	     -0.00232823	      0.00060781	      0.00017932	      0.00018236	      0.00007295	      0.00036473	      0.00023343	      0.00070028	      0.00039390	     -0.00005457	      0.00003530	      0.00004236	      0.00249817	      0.00876476	      0.00609722	     -0.00817197	      0.01973129	     -0.01871508	      0.00249817	      0.00876476	      0.00609722	      0.00055044	      0.01829167	     -0.00961159	      0.00394977	      0.00487397	      0.01597210	      0.00000000	      0.00776849	      0.00000000	     -0.00715577	     -0.03306896	     -0.00640541	      0.01481030	     -0.00048882	     -0.00395983	     -0.00088918	      0.01490432	     -0.00609722	      0.00245583	      0.02150965	     -0.01778356	     -0.00597020	      0.01291426	     -0.00546209	     -0.01244850	      0.02726813	     -0.03052845	     -0.02337269	      0.01443856	     -0.00732514	     -0.01549711	      0.03150231	     -0.03814998
      0.60000000	     -0.32116820	      0.13603169	     -0.13603169	      0.32116820	     -0.06503003	      0.52554980	      0.23623102	     -0.23623102	     -0.52554980	      0.06503003	     99.18082516	     76.03942503	     -1.73103195	    -22.83871748	     28.28048046	     20.50795335	     -0.02406915	     -1.00550470	     -0.03313931	     -0.50275235	     -0.86195360	     -2.51004565	    -34.36727165	    -37.03981638	     14.76622447	      6.24258952	     19.01424951	    -19.70265194	     74.11009604	      4.74614430	     83.82363041	     30.48143248	     61.68631028	     -6.19182164	     75.79795115	     26.42399633	      8.72829734	     -8.11453844	    -15.66274814	      4.95755240	      0.00083543	     -0.03084138	     -0.00482210	      0.01610339	     -0.01788253	     -0.00928448	      0.00603469	     -0.06587982	     -0.00170203	      0.00587643	     -0.18384660	     -0.00010499	     -0.00246095	      0.00064596	      0.00018339	      0.00018207	      0.00007283	      0.00036415	      0.00023306	      0.00069917	      0.00039328	     -0.00003096	      0.00002196	      0.00002635	      0.00249241	      0.00874454	      0.00608316	     -0.00815312	      0.01968578	     -0.01867192	      0.00249241	      0.00874454	      0.00608316	      0.00054917	      0.01824948	     -0.00958942	      0.00394311	      0.00486273	      0.01595582	      0.00000000	      0.00773244	      0.00000000	     -0.00713926	     -0.03299269	     -0.00637549	      0.01536047	     -0.00052068	     -0.00434586	     -0.00088713	      0.01486994	     -0.00608316	      0.00245016	      0.02146003	     -0.01774255	     -0.00595643	      0.01288447	     -0.00544950	     -0.01241978	      0.02720524	     -0.03045804	     -0.02331878	      0.01440526	     -0.00730824	     -0.01546136	      0.03142966	     -0.03806199
      0.63333333	     -0.32082345	      0.13588567	     -0.13588567	      0.32082345	     -0.06496022	      0.52498566	      0.23597744	     -0.23597744	     -0.52498566	      0.06496022	     99.22721252	     75.95780289	     -1.73184157	    -23.25432231	     28.37884118	     20.92850576	     -0.02283445	     -0.99322075	     -0.03141634	     -0.49661038	     -1.27022540	     -2.40746536	    -33.86099319	    -36.75186248	     14.49562547	      6.10892028	     19.44180925	    -19.79341226	     73.84578059	      4.51916295	     83.73106761	     31.27782588	     61.68285990	     -6.42399571	     75.50358552	     26.99042999	      8.64240117	     -8.03984431	    -15.76640542	      4.97019689	      0.00083868	     -0.03085265	     -0.00482392	      0.01612274	     -0.01790925	     -0.00925096	      0.00600362	     -0.06589992	     -0.00173590	      0.00591627	     -0.18384016	     -0.00011408	     -0.00251141	      0.00066056	      0.00018477	      0.00019007	      0.00007603	      0.00038014	      0.00024329	      0.00072987	      0.00041055	     -0.00004941	      0.00003264	      0.00003917	      0.00248973	      0.00873515	      0.00607663	     -0.00814437	      0.01966465	     -0.01865188	      0.00248973	      0.00873515	      0.00607663	      0.00054858	      0.01822989	     -0.00957913	      0.00394001	      0.00485751	      0.01594823	      0.00000000	      0.00771574	      0.00000000	     -0.00713160	     -0.03295727	     -0.00636162	      0.01558335	     -0.00053393	     -0.00450945	     -0.00088618	      0.01485398	     -0.00607663	      0.00244753	      0.02143700	     -0.01772350	     -0.00595003	      0.01287064	     -0.00544365	     -0.01240645	      0.02717604	     -0.03042535	     -0.02329375	      0.01438980	     -0.00730039	     -0.01544477	      0.03139592	     -0.03802113
      0.66666667	     -0.32064582	      0.13581044	     -0.13581044	      0.32064582	     -0.06492426	      0.52469501	      0.23584679	     -0.23584679	     -0.52469501	      0.06492426	     99.26542888	     75.91574896	     -1.73250857	    -23.48977828	     28.39294403	     21.24255840	     -0.02191672	     -0.98609044	     -0.03013648	     -0.49304522	     -1.28157309	     -2.55075382	    -33.83604473	    -36.60718231	     14.32271381	      6.08623810	     19.64968306	    -19.89992647	     73.78171808	      4.53181312	     83.71698810	     31.84665684	     61.67173691	     -6.42607100	     75.30308850	     27.44059245	      8.62626531	     -8.06628562	    -15.77338992	      4.96999066	      0.00083915	     -0.03085427	     -0.00482418	      0.01613690	     -0.01791308	     -0.00922576	      0.00598041	     -0.06591492	     -0.00176120	      0.00594606	     -0.18383531	     -0.00012078	     -0.00254910	      0.00067151	      0.00018574	      0.00019459	      0.00007784	      0.00038918	      0.00024908	      0.00074723	      0.00042032	     -0.00004972	      0.00003292	      0.00003950	      0.00248835	      0.00873032	      0.00607327	     -0.00813986	      0.01965376	     -0.01864155	      0.00248835	      0.00873032	      0.00607327	      0.00054828	      0.01821980	     -0.00957383	      0.00393842	      0.00485482	      0.01594432	      0.00000000	      0.00770714	      0.00000000	     -0.00712765	     -0.03293903	     -0.00635448	      0.01570860	     -0.00054146	     -0.00460325	     -0.00088568	      0.01484576	     -0.00607327	      0.00244618	      0.02142513	     -0.01771369	     -0.00594674	      0.01286351	     -0.00544063	     -0.01239958	      0.02716099	     -0.03040850	     -0.02328085	      0.01438183	     -0.00729635	     -0.01543622	      0.03137854	     -0.03800008
